<?xml version="1.0" encoding="UTF-8" standalone="no"?>
<!-- Created with Inkscape (http://www.inkscape.org/) -->

<svg
   xmlns:dc="http://purl.org/dc/elements/1.1/"
   xmlns:cc="http://creativecommons.org/ns#"
   xmlns:rdf="http://www.w3.org/1999/02/22-rdf-syntax-ns#"
   xmlns:svg="http://www.w3.org/2000/svg"
   xmlns="http://www.w3.org/2000/svg"
   xmlns:sodipodi="http://sodipodi.sourceforge.net/DTD/sodipodi-0.dtd"
   xmlns:inkscape="http://www.inkscape.org/namespaces/inkscape"
   width="210mm"
   height="297mm"
   id="svg3031"
   version="1.1"
   inkscape:version="0.48.4 r9939"
   sodipodi:docname="hug_me2.svg">
  <defs
     id="defs3033" />
  <sodipodi:namedview
     id="base"
     pagecolor="#ffffff"
     bordercolor="#666666"
     borderopacity="1.0"
     inkscape:pageopacity="0.0"
     inkscape:pageshadow="2"
     inkscape:zoom="3.959798"
     inkscape:cx="-7.9479457"
     inkscape:cy="966.48396"
     inkscape:document-units="px"
     inkscape:current-layer="layer1"
     showgrid="false"
     inkscape:window-width="1920"
     inkscape:window-height="1025"
     inkscape:window-x="1918"
     inkscape:window-y="-3"
     inkscape:window-maximized="1" />
  <metadata
     id="metadata3036">
    <rdf:RDF>
      <cc:Work
         rdf:about="">
        <dc:format>image/svg+xml</dc:format>
        <dc:type
           rdf:resource="http://purl.org/dc/dcmitype/StillImage" />
        <dc:title />
      </cc:Work>
    </rdf:RDF>
  </metadata>
  <g
     inkscape:label="Calque 1"
     inkscape:groupmode="layer"
     id="layer1">
    <g
       style="font-size:32px;font-style:normal;font-weight:normal;text-align:center;line-height:125%;letter-spacing:0px;word-spacing:0px;text-anchor:middle;fill:#000000;fill-opacity:1;stroke:none;font-family:Sans;-inkscape-font-specification:Sans"
       id="text3039"
       transform="matrix(1.6448907,0,0,1.6448907,0.56284023,-33.652725)">
      <path
         d="m -0.8727684,52.605484 3.15625,0 0,9.5625 11.4687504,0 0,-9.5625 3.15625,0 0,23.328125 -3.15625,0 0,-11.109375 -11.4687504,0 0,11.109375 -3.15625,0 0,-23.328125"
         id="path3050"
         inkscape:connector-curvature="0" />
      <path
         d="m 22.830357,52.605484 3.171875,0 0,14.171875 c -6e-6,2.500007 0.453118,4.302088 1.359375,5.40625 0.906241,1.093753 2.37499,1.640627 4.40625,1.640625 2.020819,2e-6 3.484359,-0.546872 4.390625,-1.640625 0.906233,-1.104162 1.359357,-2.906243 1.359375,-5.40625 l 0,-14.171875 3.171875,0 0,14.5625 c -2.1e-5,3.041672 -0.755229,5.338545 -2.265625,6.890625 -1.500017,1.552084 -3.718765,2.328125 -6.65625,2.328125 -2.947926,0 -5.17709,-0.776041 -6.6875,-2.328125 -1.500004,-1.55208 -2.250003,-3.848953 -2.25,-6.890625 l 0,-14.5625"
         id="path3052"
         inkscape:connector-curvature="0" />
      <path
         d="m 62.533482,72.605484 0,-6.265625 -5.15625,0 0,-2.59375 8.28125,0 0,10.015625 c -1.218771,0.864585 -2.56252,1.520834 -4.03125,1.96875 -1.468767,0.4375 -3.036474,0.65625 -4.703125,0.65625 -3.645844,0 -6.500007,-1.062499 -8.5625,-3.1875 -2.052087,-2.135412 -3.078127,-5.104159 -3.078125,-8.90625 -2e-6,-3.812485 1.026038,-6.781232 3.078125,-8.90625 2.062493,-2.135394 4.916656,-3.203101 8.5625,-3.203125 1.520818,2.4e-5 2.963525,0.187524 4.328125,0.5625 1.37498,0.375023 2.640604,0.927106 3.796875,1.65625 l 0,3.359375 c -1.166687,-0.989564 -2.40627,-1.734355 -3.71875,-2.234375 -1.312517,-0.499979 -2.692724,-0.749979 -4.140625,-0.75 -2.854178,2.1e-5 -5.000009,0.796895 -6.4375,2.390625 -1.42709,1.593767 -2.140631,3.968765 -2.140625,7.125 -6e-6,3.145842 0.713535,5.515631 2.140625,7.109375 1.437491,1.593753 3.583322,2.390627 6.4375,2.390625 1.114568,2e-6 2.109359,-0.09375 2.984375,-0.28125 0.874982,-0.197914 1.66144,-0.499997 2.359375,-0.90625"
         id="path3054"
         inkscape:connector-curvature="0" />
      <path
         d="m 4.9397316,92.605484 4.703125,0 5.9531254,15.874996 5.984375,-15.874996 4.703125,0 0,23.328126 -3.078125,0 0,-20.484376 -6.015625,15.999996 -3.171875,0 -6.0156254,-15.999996 0,20.484376 -3.0625,0 0,-23.328126"
         id="path3056"
         inkscape:connector-curvature="0" />
      <path
         d="m 32.564732,92.605484 14.75,0 0,2.65625 -11.59375,0 0,6.906246 11.109375,0 0,2.65625 -11.109375,0 0,8.45313 11.875,0 0,2.65625 -15.03125,0 0,-23.328126"
         id="path3058"
         inkscape:connector-curvature="0" />
      <path
         d="m 54.502232,111.96486 3.171875,0 0,3.96875 -3.171875,0 0,-3.96875 m 0,-19.359376 3.171875,0 0,10.234376 -0.3125,5.57812 -2.53125,0 -0.328125,-5.57812 0,-10.234376"
         id="path3060"
         inkscape:connector-curvature="0" />
    </g>
  </g>
</svg>
